<?xml version="1.0" encoding="utf-8"?>
<!-- Generator: Adobe Illustrator 16.0.0, SVG Export Plug-In . SVG Version: 6.00 Build 0)  -->
<!DOCTYPE svg PUBLIC "-//W3C//DTD SVG 1.1//EN" "http://www.w3.org/Graphics/SVG/1.1/DTD/svg11.dtd">
<svg version="1.1" id="Layer_1" xmlns="http://www.w3.org/2000/svg" xmlns:xlink="http://www.w3.org/1999/xlink" x="0px" y="0px"
	 width="384.775px" height="205.77px" viewBox="0 0 384.775 205.77" enable-background="new 0 0 384.775 205.77"
	 xml:space="preserve">
<g>
	<path fill="#FFFFFF" d="M15.953,183.047c-0.612-0.289-1.404-0.434-2.232-0.434c-3.781,0-6.555,2.99-6.555,9.148
		c0,6.373,2.881,8.967,7.383,8.967c2.448,0,5.041-0.578,7.382-1.514c0.145,1.225-0.288,3.35-1.116,4.574
		c-2.269,1.225-4.97,1.98-7.958,1.98C5.006,205.77,0,200.223,0,192.374c0-8.787,6.158-13.863,14.044-13.863
		c3.025,0,6.015,0.756,8.103,1.908c0,2.305-0.323,5.473-0.792,7.49c-1.729,0-4.141-0.576-5.401-1.225V183.047z"/>
	<path fill="#FFFFFF" d="M28.344,183.803c-0.72-0.037-1.656-0.18-2.269-0.324c-0.18-1.045-0.216-2.918-0.072-3.998
		c2.917-0.432,7.742-0.646,11.523-0.646c6.338,0,10.911,2.447,10.911,7.742c0,3.564-2.017,5.832-4.861,7.057
		c1.909,3.35,4.321,6.266,5.546,7.023l1.944-0.217c0,1.26-0.432,3.35-0.972,4.393c-1.009,0.324-4.321,0.758-5.582,0.793
		c-1.44-1.117-5.294-6.77-7.094-10.875c-0.828,0-1.765-0.072-2.377-0.217v6.051c0.792,0.072,1.98,0.359,2.557,0.576
		c0.252,1.043,0.288,2.736,0.145,3.889H25.175c0.072-1.08,0.433-2.988,0.792-3.816c0.505-0.217,1.692-0.541,2.377-0.648V183.803z
		 M35.042,190.68c0.468,0.109,1.62,0.217,2.305,0.217c2.448,0,4.357-1.08,4.357-3.889c0-2.666-1.765-4.143-4.79-4.143
		c-0.72,0-1.332,0.037-1.872,0.145V190.68z"/>
	<path fill="#FFFFFF" d="M53.542,205.049c0.072-1.08,0.433-2.988,0.792-3.816c0.505-0.217,1.692-0.541,2.377-0.648v-16.961
		c-0.72-0.109-1.692-0.324-2.232-0.541c-0.181-1.08-0.252-2.664-0.036-3.854h11.56c0.144,0.865,0.108,2.99-0.072,3.891
		c-0.54,0.18-1.729,0.395-2.448,0.467v16.998c0.864,0.107,2.053,0.359,2.736,0.576c0.145,0.611,0.216,1.512,0.216,2.34
		c0,0.613-0.036,1.152-0.107,1.549H53.542z"/>
	<path fill="#FFFFFF" d="M82.9,182.831c-0.756-0.359-1.512-0.504-2.341-0.504c-2.088,0-3.312,0.936-3.312,2.484
		c0,4.861,12.46,3.205,12.46,12.389c0,6.518-4.97,8.57-11.02,8.57c-2.737,0-6.194-0.432-8.895-1.549c0-1.98,0.288-5.438,0.685-7.418
		c1.439,0,3.997,0.287,5.401,0.756v3.674c1.08,0.395,2.269,0.684,3.564,0.684c2.377,0,4.033-0.936,4.033-3.061
		c0-4.971-12.604-2.881-12.604-12.928c0-4.609,3.638-7.418,9.615-7.418c2.809,0,5.869,0.539,8.391,1.584
		c0,1.801-0.396,4.789-0.9,6.697c-1.404,0-3.745-0.504-5.078-1.08V182.831z"/>
	<path fill="#FFFFFF" d="M95.429,183.766c-0.72-0.035-1.656-0.18-2.269-0.322c-0.18-1.045-0.216-2.918-0.072-3.998
		c2.737-0.359,7.635-0.611,11.38-0.611c6.481,0,11.127,2.484,11.127,8.102c0,6.049-5.258,8.643-10.587,8.643
		c-1.08,0-2.232-0.107-2.881-0.252v5.186c1.044,0.107,2.917,0.432,3.817,0.684c0.252,1.045,0.324,2.736,0.144,3.854H92.26
		c0.072-1.08,0.433-2.988,0.792-3.816c0.505-0.217,1.693-0.541,2.377-0.648V183.766z M102.127,191.293
		c0.54,0.107,1.62,0.217,2.377,0.217c2.376,0,4.393-1.152,4.393-4.143c0-2.844-1.836-4.537-5.077-4.537
		c-0.612,0-1.225,0.035-1.692,0.107V191.293z"/>
	<path fill="#FFFFFF" d="M131.467,192.59c0.145-1.334,0.612-2.918,1.116-3.854l1.98-3.637c0.289-0.541,0.829-1.152,1.369-1.514
		c-0.54-0.072-1.369-0.287-1.765-0.504c-0.36-1.115-0.54-2.664-0.576-3.854h10.119c0,1.297-0.252,2.99-0.576,4.105
		c-0.469,0.18-1.225,0.324-1.801,0.361l-7.706,11.811v5.041c1.152,0.109,2.845,0.396,3.745,0.648
		c0.252,1.045,0.324,2.736,0.144,3.854h-14.62c0.072-1.08,0.54-2.916,0.864-3.746c0.685-0.252,2.269-0.611,3.205-0.756v-4.5
		l-7.526-12.424c-0.576-0.072-1.296-0.289-1.692-0.469c-0.396-1.117-0.612-2.594-0.721-3.926h12.316
		c-0.036,1.262-0.324,2.953-0.685,4.143c-0.468,0.18-1.368,0.359-1.908,0.395c0.468,0.324,0.972,0.938,1.296,1.514l1.837,3.492
		c0.396,0.756,0.937,2.414,1.08,3.818H131.467z"/>
	<path fill="#FFFFFF" d="M166.921,190.249c-0.54-1.477-1.116-4.068-1.332-6.014h-0.504v16.35c0.72,0.107,1.836,0.359,2.412,0.576
		c0.217,1.043,0.288,2.736,0.108,3.889h-10.011c0.071-1.08,0.432-3.025,0.792-3.854c0.432-0.215,1.44-0.504,2.017-0.576v-16.996
		c-0.648-0.109-1.585-0.324-2.053-0.541c-0.18-1.08-0.252-2.664-0.036-3.854h11.38l4.465,12.568
		c0.576,1.656,1.152,4.609,1.297,6.807h0.504c0.107-2.197,0.72-5.15,1.296-6.771l4.538-12.604h10.948
		c0.143,0.865,0.107,2.99-0.072,3.891c-0.541,0.18-1.729,0.395-2.449,0.467v17.07c0.863,0.107,2.053,0.359,2.736,0.576
		c0.145,0.611,0.217,1.439,0.217,2.268c0,0.613-0.037,1.152-0.107,1.549h-11.632c0.072-1.08,0.396-2.988,0.72-3.816
		c0.469-0.252,1.513-0.576,2.089-0.686v-16.492h-0.504c-0.252,2.016-0.828,4.754-1.477,6.662l-5.042,14.691h-4.933L166.921,190.249z
		"/>
	<path fill="#FFFFFF" d="M221.515,191.797c0,8.895-4.934,13.973-12.713,13.973c-8.281,0-12.818-4.789-12.818-13.973
		c0-8.246,5.51-13.287,12.818-13.287C216.509,178.51,221.515,183.19,221.515,191.797z M208.802,201.627
		c3.746,0,5.582-3.637,5.582-9.83c0-5.475-2.232-9.219-5.582-9.219c-3.709,0-5.689,3.457-5.689,9.219
		C203.113,197.918,205.238,201.627,208.802,201.627z"/>
	<path fill="#FFFFFF" d="M233.246,194.823c0,4.645,1.514,6.734,5.078,6.734c3.996,0,5.545-2.559,5.545-6.59v-11.309
		c-0.648-0.072-1.619-0.287-2.16-0.504c-0.18-0.973-0.217-2.916,0-3.926h9.471c0.072,0.361,0.107,1.045,0.107,1.693
		c0,0.9-0.07,1.729-0.18,2.232c-0.467,0.18-1.619,0.359-2.195,0.396v11.127c0,6.662-3.17,11.092-11.488,11.092
		c-7.455,0-10.875-3.529-10.875-10.516v-11.74c-0.721-0.07-1.584-0.287-2.197-0.467c-0.252-1.045-0.396-2.701-0.396-3.818h11.74
		c0.18,0.9,0.145,2.953-0.035,3.854c-0.541,0.217-1.801,0.469-2.414,0.504V194.823z"/>
	<path fill="#FFFFFF" d="M272.9,193.167c0.648,1.26,1.404,3.672,1.656,5.293h0.504v-14.801c-0.9-0.107-2.053-0.359-2.736-0.576
		c-0.182-0.973-0.217-2.881,0-3.854h9.686c0.072,0.361,0.109,1.01,0.109,1.656c0,0.9-0.072,1.729-0.182,2.234
		c-0.504,0.18-1.729,0.432-2.412,0.504v21.75h-7.418l-8.102-15.34c-0.648-1.225-1.477-3.711-1.729-5.33h-0.506v15.881
		c0.83,0.072,2.018,0.359,2.629,0.576c0.252,1.08,0.289,2.736,0.145,3.889h-10.479c0.072-1.08,0.432-3.025,0.791-3.854
		c0.434-0.215,1.441-0.504,2.018-0.576v-16.996c-0.721-0.109-1.693-0.324-2.232-0.541c-0.18-1.08-0.252-2.664-0.037-3.854h11.057
		L272.9,193.167z"/>
	<path fill="#FFFFFF" d="M300.369,200.547c1.152,0.109,2.846,0.396,3.746,0.648c0.252,1.045,0.324,2.736,0.145,3.854h-14.693
		c0.072-1.08,0.541-2.916,0.865-3.746c0.684-0.252,2.268-0.611,3.205-0.756V183.12h-3.205c-0.037,0.756-0.289,2.305-0.469,3.023
		c-1.512,0.504-3.602,0.648-5.221,0.648v-7.562h24.666v7.672c-1.764,0-3.744-0.217-5.293-0.648
		c-0.217-0.793-0.432-2.234-0.504-3.133h-3.242V200.547z"/>
	<path fill="#FFFFFF" d="M317.869,197.739l-0.396,1.08c-0.18,0.504-0.648,1.404-1.045,1.873c0.721,0.072,1.693,0.252,2.27,0.432
		c0.396,1.045,0.648,2.701,0.684,3.926h-10.875c0.145-1.297,0.539-2.773,0.973-3.889c0.432-0.217,1.08-0.469,1.656-0.576
		l9.758-21.75h5.115l9.361,21.678c0.504,0.107,1.297,0.359,1.766,0.611c0.359,1.152,0.611,2.701,0.684,3.926h-12.244
		c0.072-1.188,0.504-2.846,0.938-3.926c0.539-0.215,1.439-0.504,2.053-0.611c-0.506-0.504-0.9-1.225-1.189-1.98l-0.287-0.793
		H317.869z M322.441,184.307c-0.18,1.584-0.936,3.926-1.439,5.258l-1.621,4.25h6.338l-1.584-4.287
		c-0.504-1.332-1.045-3.6-1.189-5.221H322.441z"/>
	<path fill="#FFFFFF" d="M340.671,205.049c0.072-1.08,0.432-2.988,0.791-3.816c0.506-0.217,1.693-0.541,2.377-0.648v-16.961
		c-0.719-0.109-1.691-0.324-2.232-0.541c-0.18-1.08-0.252-2.664-0.035-3.854h11.559c0.145,0.865,0.107,2.99-0.072,3.891
		c-0.539,0.18-1.729,0.395-2.447,0.467v16.998c0.863,0.107,2.051,0.359,2.736,0.576c0.145,0.611,0.215,1.512,0.215,2.34
		c0,0.613-0.035,1.152-0.107,1.549H340.671z"/>
	<path fill="#FFFFFF" d="M375.556,193.167c0.648,1.26,1.404,3.672,1.656,5.293h0.504v-14.801c-0.9-0.107-2.053-0.359-2.736-0.576
		c-0.18-0.973-0.215-2.881,0-3.854h9.688c0.072,0.361,0.107,1.01,0.107,1.656c0,0.9-0.072,1.729-0.18,2.234
		c-0.504,0.18-1.729,0.432-2.412,0.504v21.75h-7.418l-8.104-15.34c-0.648-1.225-1.477-3.711-1.729-5.33h-0.504v15.881
		c0.828,0.072,2.016,0.359,2.629,0.576c0.252,1.08,0.287,2.736,0.145,3.889h-10.48c0.072-1.08,0.434-3.025,0.793-3.854
		c0.432-0.215,1.439-0.504,2.016-0.576v-16.996c-0.719-0.109-1.691-0.324-2.232-0.541c-0.18-1.08-0.252-2.664-0.035-3.854h11.055
		L375.556,193.167z"/>
</g>
<polygon fill="#FFFFFF" points="305.796,107.825 289.519,95.033 302.414,120.465 282.726,89.694 279.589,87.23 294.417,116.466 
	271.777,81.09 269.66,79.424 286.414,112.466 260.832,72.488 259.734,71.627 278.417,108.466 249.89,63.891 249.808,63.824 
	270.414,104.466 241.64,59.5 262.417,100.466 208.535,15.965 258.246,104.137 316.398,139.811 237.671,106.871 194.593,0 
	160.223,44.104 172.633,79.385 175.461,81.809 168.105,58.91 179.238,85.041 182.75,88.047 172.105,54.908 188.219,92.724 
	190.039,94.286 176.105,50.91 197.191,100.407 197.328,100.524 180.105,46.912 201.591,97.341 184.105,42.91 205.593,93.354 
	188.105,38.91 209.593,89.348 192.105,34.91 213.39,84.867 210.615,111.75 210.484,111.786 210.601,111.885 162.105,84.828 
	133.477,32.32 25.146,153.67 88.658,153.67 118.76,98.854 118.436,98.158 100.527,122.004 116.82,94.691 116.332,93.641 
	93.527,124.004 114.273,89.224 114.227,89.124 86.527,126.004 107.754,90.417 79.527,128.004 100.75,92.424 72.527,130.004 
	106.297,74.402 145.521,113.813 252.13,142.512 142.383,129.879 88.658,153.67 242.587,153.67 147.753,149.932 152.383,145.879 
	257.572,153.67 288.962,153.67 143.753,142.932 148.383,138.879 297.806,153.67 316.236,153.67 334.147,153.618 139.753,135.932 
	144.383,131.879 336.527,153.611 352.691,153.563 338.027,144.557 "/>
<path opacity="0.2" d="M192.142,61.778l-8.827-22.869l1.823,6.425L192.142,61.778z M187.265,63.716l-8.084-20.947l1.675,5.902
	L187.265,63.716z M182.408,65.704l-7.363-19.073l1.521,5.359L182.408,65.704z M290.296,153.67h0.201h-0.779H290.296z
	 M189.423,42.006l7.584,17.798l-9.557-24.756L189.423,42.006z M177.527,67.632l-6.617-17.143l1.37,4.829L177.527,67.632z
	 M88.666,153.67l29.77-55.512l-18.62,28.017L76.26,153.67 M237.671,106.872L194.593,0l-2.418,3.103l38.342,101.429l77.549,39.625
	l-32.18-21.297L237.671,106.872z M338.027,144.557l-32.23-36.732l25.67,34.832l-36.703-20.421l49.363,31.435h9.721L338.027,144.557z
	 M224.744,127.589l-37.595-28.752l-25.043-14.009L133.477,32.32l-1.758,2.003l22.034,47.583L224.744,127.589z M89.177,102.59
	l17.12-28.188l-3.961-2.833L50.98,144.422L94.173,89.39l-22.432,34.83L89.177,102.59z M239.257,143.976l4.486,0.673l-1.072-0.328
	L239.257,143.976z"/>
<g>
</g>
<g>
</g>
<g>
</g>
<g>
</g>
<g>
</g>
<g>
</g>
</svg>
