<?xml version="1.0" standalone="no"?><!-- Generator: Gravit.io --><svg xmlns="http://www.w3.org/2000/svg" xmlns:xlink="http://www.w3.org/1999/xlink" style="isolation:isolate" width="602" height="595"><g opacity="0.5"><rect rx="1" ry="1" x="87.99999999999997" y="97.49999999999997" width="424" height="400" transform="matrix(0.8363672854278289,0.5481694663752117,-0.5481694663752118,0.8363672854278288,212.17023061827683,-115.77010732734254)" fill="rgba(0,0,0,0)" stroke-width="29" stroke="rgb(233,233,233)" stroke-linejoin="miter" stroke-linecap="square"/></g><path d=" M 428.9202336378373 367.2351755396743 L 437.46605763783737 367.2351755396743 C 437.46605763783737 392.23962274839425 433.43052963783737 410.43906353967424 425.35947363783737 421.83349553967423 C 417.28841763783737 433.2279275396743 407.08090563783736 438.92514353967425 394.7369376378374 438.92514353967425 C 384.76680963783735 438.92514353967425 375.1923224291173 435.20612753176147 366.01347363783736 427.7680955396743 C 356.8346248465574 420.3300636188022 348.60531442911736 400.15242433095426 341.32553763783733 367.2351755396743 L 320.91051363783737 275.13018353967425 L 250.17008163783734 435.60176753967426 L 205.30450563783734 435.60176753967426 L 306.9048576378374 216.73371953967424 C 301.52415284655734 188.40590345247423 295.03565763783735 167.43696762687426 287.43936963783733 153.82695953967425 C 279.8430816378374 140.21695145247423 270.42684884655733 133.41193553967423 259.19067363783734 133.41193553967423 C 250.17008163783734 133.41193553967423 242.33640963783733 136.81443162687424 235.68965763783734 143.61944753967424 C 229.04290563783735 150.42446345247424 225.24476163783734 161.10674345247423 224.29522563783735 175.66628753967422 L 215.74940163783734 175.66628753967422 C 216.22416963783735 152.40265553967424 220.89272171696535 133.80758345247426 229.75505763783735 119.88104753967423 C 238.61739284655735 105.95451162687425 249.69531363783736 98.91213545247422 262.98881763783737 98.75387153967426 C 271.53464163783735 98.75387153967426 279.60569763783735 102.23551145247421 287.20198563783737 109.19876753967424 C 294.7982736378374 116.16202362687426 301.4450256378374 128.18948753967425 307.14224163783734 145.28113553967427 C 312.83945763783737 162.37278353967423 321.6226656378374 197.66387945247425 333.49186563783735 251.15439953967424 L 350.34612963783735 326.40512753967425 C 357.15113842911734 357.58155874839423 364.2726584291173 378.39222353967426 371.7106896378374 388.83711953967423 C 379.14872084655735 399.28201553967426 388.1693128465574 404.5835907483943 398.7724656378374 404.74184753967427 C 416.49713842911734 404.74184753967427 426.54639363783735 392.23962274839425 428.9202336378373 367.2351755396743 Z " fill="rgb(233,233,233)" stroke-width="0.23738400000000004" stroke="rgba(0,0,0,0)" stroke-linejoin="miter" stroke-linecap="butt"/></svg>