<?xml version="1.0" standalone="no"?><!-- Generator: Gravit.io --><svg xmlns="http://www.w3.org/2000/svg" xmlns:xlink="http://www.w3.org/1999/xlink" style="isolation:isolate" width="28" height="20"><path d=" M 2 4 L 26 4 C 27.104 4 28 3.103999999999999 28 2 C 28 0.8960000000000008 27.104 0 26 0 L 2 0 C 0.8959999999999999 0 0 0.8959999999999999 0 2 C 0 3.103999999999999 0.8959999999999999 4 2 4 Z  M 26 8 L 2 8 C 0.8959999999999999 8 0 8.896 0 10 C 0 11.104 0.8959999999999999 12 2 12 L 26 12 C 27.104 12 28 11.104 28 10 C 28 8.896 27.104 8 26 8 Z  M 26 16 L 2 16 C 0.8959999999999999 16 0 16.896 0 18 C 0 19.104 0.8959999999999999 20 2 20 L 26 20 C 27.104 20 28 19.104 28 18 C 28 16.896 27.104 16 26 16 Z " fill-rule="evenodd" fill="rgb(233,233,233)" stroke-width="1" stroke="rgba(0,0,0,0)" stroke-linejoin="miter" stroke-linecap="butt"/></svg>