<?xml version="1.0" standalone="no"?><!-- Generator: Gravit.io --><svg xmlns="http://www.w3.org/2000/svg" xmlns:xlink="http://www.w3.org/1999/xlink" style="isolation:isolate" width="685" height="148"><path d=" M -0.035116000000016356 -0.24670240000000376 L -0.035116000000016356 148.2467024 L 59.362103199999986 88.84948279999999 L 118.75932239999999 148.2467024 L 118.75932239999999 -0.24670240000000376" fill="rgb(41,39,74)" stroke-width="4" stroke="rgba(0,0,0,0)" stroke-linejoin="miter" stroke-linecap="butt"/><path d=" M 29.663564919999985 59.150802 L 59.362103199999986 88.84948279999999 L 89.06078399999998 59.150802 L 29.663564919999985 59.150802 Z " fill="rgb(255,192,0)" stroke-width="4" stroke="rgba(0,0,0,0)" stroke-linejoin="miter" stroke-linecap="butt"/><path d=" M 172.70511599999998 42.966836 Q 183.05511599999994 42.966836 188.81511599999996 47.961836 Q 194.57511599999995 52.956836 194.57511599999995 62.046836 Q 194.57511599999995 70.866836 188.81511599999996 75.816836 Q 183.05511599999994 80.76683600000001 172.70511599999998 80.76683600000001 L 160.19511599999996 80.76683600000001 L 160.19511599999996 102.366836 L 147.77511599999997 102.366836 L 147.77511599999997 42.966836 L 172.70511599999998 42.966836 Z  M 170.81511599999996 71.13683599999999 Q 176.57511599999995 71.13683599999999 179.27511599999997 68.841836 Q 181.97511599999996 66.546836 181.97511599999996 61.956836 Q 181.97511599999996 57.366836 179.27511599999997 55.116836 Q 176.57511599999995 52.866836 170.81511599999996 52.866836 L 160.19511599999996 52.866836 L 160.19511599999996 71.13683599999999 L 170.81511599999996 71.13683599999999 Z  M 251.72511599999996 92.376836 L 251.72511599999996 102.366836 L 205.91511599999995 102.366836 L 205.91511599999995 42.966836 L 250.46511599999997 42.966836 L 250.46511599999997 52.956836 L 218.33511599999997 52.956836 L 218.33511599999997 67.716836 L 243.62511599999996 67.716836 L 243.62511599999996 77.25683599999999 L 218.33511599999997 77.25683599999999 L 218.33511599999997 92.376836 L 251.72511599999996 92.376836 Z  M 313.91511599999995 102.366836 L 299.695116 102.366836 L 278.90511599999996 67.44683599999999 L 273.77511599999997 57.456836 L 273.685116 57.456836 L 274.04511599999995 67.98683600000001 L 274.04511599999995 102.366836 L 262.8851159999999 102.366836 L 262.8851159999999 42.966836 L 277.0151159999999 42.966836 L 297.80511599999994 77.796836 L 302.935116 87.876836 L 303.11511599999994 87.876836 L 302.75511599999993 77.346836 L 302.75511599999993 42.966836 L 313.91511599999995 42.966836 L 313.91511599999995 102.366836 Z  M 380.87511599999993 70.95683600000001 L 380.87511599999993 102.366836 L 371.78511599999996 102.366836 L 371.515116 95.25683599999999 Q 366.11511599999994 103.26683600000001 353.96511599999997 103.26683600000001 Q 345.77511599999997 103.26683600000001 339.565116 99.66683599999999 Q 333.35511599999995 96.066836 329.890116 89.181836 Q 326.425116 82.296836 326.425116 72.75683599999999 Q 326.425116 63.306836000000004 329.98011599999995 56.376836000000004 Q 333.53511599999996 49.446836000000005 340.060116 45.756836 Q 346.58511599999997 42.066836 355.315116 42.066836 Q 364.945116 42.066836 371.020116 45.576836 Q 377.09511599999996 49.086836 380.60511599999995 56.646836 L 369.17511599999995 61.596836 Q 367.825116 57.006836 364.270116 54.621836 Q 360.71511599999997 52.236836000000004 355.67511599999995 52.236836000000004 Q 347.935116 52.236836000000004 343.61511599999994 57.546836 Q 339.29511599999995 62.856836 339.29511599999995 72.66683599999999 Q 339.29511599999995 82.836836 343.52511599999997 88.056836 Q 347.75511599999993 93.276836 355.945116 93.276836 Q 362.24511599999994 93.276836 366.205116 90.26183599999999 Q 370.16511599999995 87.246836 370.16511599999995 81.48683600000001 L 370.16511599999995 80.13683599999999 L 352.79511599999995 80.13683599999999 L 352.79511599999995 70.95683600000001 L 380.87511599999993 70.95683600000001 Z  M 444.3251159999999 78.966836 Q 444.3251159999999 91.026836 437.890116 97.14683600000001 Q 431.455116 103.26683600000001 418.9451159999999 103.26683600000001 Q 406.43511599999994 103.26683600000001 400.00011599999993 97.14683600000001 Q 393.565116 91.026836 393.565116 78.966836 L 393.565116 42.966836 L 405.98511599999995 42.966836 L 405.98511599999995 78.42683600000001 Q 405.98511599999995 85.89683600000001 409.18011599999994 89.496836 Q 412.37511599999993 93.096836 418.9451159999999 93.096836 Q 425.515116 93.096836 428.66511599999995 89.496836 Q 431.81511599999993 85.89683600000001 431.81511599999993 78.42683600000001 L 431.81511599999993 42.966836 L 444.3251159999999 42.966836 L 444.3251159999999 78.966836 Z  M 471.23511599999995 102.366836 L 458.81511599999993 102.366836 L 458.81511599999993 42.966836 L 471.23511599999995 42.966836 L 471.23511599999995 102.366836 Z  M 537.7451159999998 102.366836 L 523.5251159999999 102.366836 L 502.7351159999999 67.44683599999999 L 497.6051159999999 57.456836 L 497.5151159999999 57.456836 L 497.8751159999999 67.98683600000001 L 497.8751159999999 102.366836 L 486.7151159999999 102.366836 L 486.7151159999999 42.966836 L 500.8451159999999 42.966836 L 521.6351159999999 77.796836 L 526.7651159999999 87.876836 L 526.9451159999999 87.876836 L 526.585116 77.346836 L 526.585116 42.966836 L 537.7451159999998 42.966836 L 537.7451159999998 102.366836 Z  M 558.1751159999999 88.596836 Q 561.7751159999999 88.596836 563.8901159999998 90.57683599999999 Q 566.0051159999998 92.556836 566.0051159999998 95.88683599999999 Q 566.0051159999998 99.216836 563.8901159999998 101.19683599999999 Q 561.7751159999999 103.17683600000001 558.1751159999999 103.17683600000001 Q 554.5751159999999 103.17683600000001 552.460116 101.241836 Q 550.345116 99.306836 550.345116 95.88683599999999 Q 550.345116 92.466836 552.460116 90.531836 Q 554.5751159999999 88.596836 558.1751159999999 88.596836 Z  M 618.0251159999999 80.496836 Q 618.0251159999999 91.20683600000001 611.9051159999999 97.23683600000001 Q 605.7851159999999 103.26683600000001 594.7151159999999 103.26683600000001 Q 584.4551159999999 103.26683600000001 579.1451159999999 98.54183599999999 Q 573.835116 93.816836 573.835116 85.626836 Q 573.835116 83.10683599999999 574.3751159999999 80.316836 L 586.5251159999999 78.156836 Q 586.1651159999999 80.67683600000001 586.1651159999999 83.19683599999999 Q 586.1651159999999 88.32683599999999 588.325116 90.711836 Q 590.4851159999998 93.096836 595.075116 93.096836 Q 600.835116 93.096836 603.220116 89.63183599999999 Q 605.605116 86.16683599999999 605.605116 78.786836 L 605.605116 42.966836 L 618.0251159999999 42.966836 L 618.0251159999999 80.496836 Z  M 654.2951159999998 42.066836 Q 662.575116 42.066836 668.5151159999998 44.811836 Q 674.4551159999999 47.556836000000004 678.9551159999999 53.496836 L 670.4051159999999 61.866836 Q 668.065116 57.006836 664.1951159999999 54.621836 Q 660.325116 52.236836000000004 654.3851159999999 52.236836000000004 Q 648.9851159999998 52.236836000000004 646.0601159999999 54.261836 Q 643.1351159999999 56.286836 643.1351159999999 59.616836 Q 643.1351159999999 62.676836 646.105116 64.47683599999999 Q 649.0751159999999 66.276836 656.815116 67.626836 Q 664.9151159999999 69.156836 669.6851159999999 71.406836 Q 674.4551159999999 73.656836 676.6601159999998 77.031836 Q 678.865116 80.406836 678.865116 85.44683599999999 Q 678.865116 90.936836 675.7601159999999 94.941836 Q 672.6551159999999 98.94683599999999 667.1201159999998 101.10683599999999 Q 661.585116 103.26683600000001 654.4751159999998 103.26683600000001 Q 644.6651159999999 103.26683600000001 638.4101159999999 100.52183600000001 Q 632.1551159999999 97.776836 628.2851159999999 92.19683599999999 L 635.6651159999999 83.376836 Q 638.9951159999998 88.866836 643.3151159999999 90.98183599999999 Q 647.6351159999999 93.096836 654.0251159999998 93.096836 Q 659.7851159999998 93.096836 662.8001159999999 91.29683599999998 Q 665.815116 89.496836 665.815116 86.16683599999999 Q 665.815116 83.73683600000001 662.980116 82.116836 Q 660.1451159999999 80.496836 652.855116 79.056836 Q 644.4851159999998 77.346836 639.490116 75.00683599999999 Q 634.4951159999998 72.66683599999999 632.2451159999998 69.246836 Q 629.9951159999998 65.826836 629.9951159999998 60.786836 Q 629.9951159999998 55.476836 632.8751159999999 51.201836 Q 635.7551159999998 46.926836 641.2901159999999 44.496836 Q 646.8251159999999 42.066836 654.2951159999998 42.066836 Z " fill-rule="evenodd" fill="rgb(82,78,129)" stroke-width="1" stroke="rgba(0,0,0,0)" stroke-linejoin="miter" stroke-linecap="square"/></svg>